<svg width="307" height="228" viewBox="0 0 307 228" fill="none" xmlns="http://www.w3.org/2000/svg">
<path d="M146.703 135.658C129.831 147.316 108.424 144.611 95.4667 129.185C82.9875 114.33 84.2959 92.5304 98.5178 78.3699C107.97 68.9588 117.425 59.5459 126.885 50.1312C138.787 38.3582 156.571 37.9749 168.632 49.5288C178.894 59.3561 188.973 69.3732 198.868 79.5801C213.965 95.1697 212.387 120.101 195.878 134.108C184.454 143.806 164.718 147.152 148.16 134.76C147.561 135.143 147.11 135.379 146.703 135.658ZM190.496 127.576C203.288 116.525 204.624 98.039 193.003 85.6856C183.184 75.2542 172.959 65.1842 162.618 55.2565C154.246 47.2126 141.915 47.2892 133.531 55.3661C123.212 65.3156 112.998 75.3911 103.114 85.7677C92.2617 97.1629 92.8005 114.746 103.872 125.884C109.145 131.236 116.31 134.321 123.836 134.479C131.362 134.638 138.652 131.857 144.147 126.732C151.634 119.783 158.775 112.451 165.917 105.136C170.111 100.843 170.078 94.8466 166.197 90.6467C164.44 88.6572 161.976 87.4252 159.325 87.2106C156.674 86.9961 154.042 87.8158 151.986 89.4968C148.99 91.8623 146.698 91.7528 143.74 89.4037C139.342 85.8992 133.223 86.6658 129.518 90.7288C127.755 92.6953 126.796 95.2493 126.833 97.8858C126.87 100.522 127.898 103.049 129.716 104.966C132.597 108.071 135.708 110.962 138.693 113.974C141.442 116.739 141.838 119.236 139.694 121.059C137.126 123.25 134.9 122.193 132.833 120.074C129.958 117.133 126.978 114.291 124.119 111.312C117.418 104.375 116.5 94.6386 121.772 87.0491C127.149 79.2953 136.687 76.7984 145.719 80.5712C147.131 81.115 148.694 81.1306 150.117 80.615C159.023 76.9079 168.517 79.2789 173.844 86.7479C179.342 94.4141 178.478 104.227 171.645 111.307C168.896 114.182 166.032 116.969 163.19 119.767C160.348 122.565 157.478 125.309 154.433 128.266C164.18 136.786 180.452 136.249 190.496 127.576Z" fill="white"/>
<path d="M211.683 75.2378C209.16 75.291 206.651 74.8435 204.303 73.9214C201.955 72.9992 199.815 71.6208 198.007 69.8665C196.199 68.1122 194.76 66.017 193.773 63.7031C192.786 61.3892 192.271 58.9028 192.259 56.3888C192.247 53.8748 192.737 51.3835 193.701 49.0601C194.665 46.7366 196.083 44.6275 197.873 42.8555C199.664 41.0836 201.79 39.6843 204.129 38.7392C206.468 37.7941 208.972 37.3221 211.496 37.3506C222.2 37.3506 230.506 45.5644 230.572 56.1381C230.597 61.1621 228.624 65.9915 225.085 69.5705C221.545 73.1496 216.727 75.1872 211.683 75.2378ZM211.854 66.8215C214.687 66.7525 217.377 65.5651 219.332 63.5205C221.287 61.4759 222.346 58.7416 222.277 55.9191C222.207 53.0966 221.015 50.4171 218.963 48.4701C216.91 46.5231 214.165 45.468 211.331 45.537C208.498 45.6052 205.807 46.7919 203.852 48.836C201.897 50.8801 200.837 53.6141 200.905 56.4366C200.974 59.2591 202.165 61.9389 204.217 63.8864C206.27 65.8339 209.014 66.8897 211.848 66.8215H211.854Z" fill="white"/>
<path d="M103.669 56.4503C103.678 58.9369 103.195 61.4009 102.248 63.7017C101.301 66.0025 99.9084 68.095 98.1496 69.8596C94.5973 73.4235 89.7692 75.4359 84.7274 75.4541C82.231 75.4631 79.7572 74.9822 77.4473 74.0389C75.1374 73.0956 73.0367 71.7084 71.265 69.9564C67.687 66.4182 65.6667 61.6091 65.6485 56.5872C65.6303 51.5652 67.6156 46.7417 71.1679 43.1778C74.7201 39.6139 79.5482 37.6015 84.59 37.5834C89.6318 37.5652 94.4744 39.5428 98.0524 43.081C101.63 46.6192 103.651 51.4283 103.669 56.4503ZM73.8947 56.2312C73.8177 61.9534 78.7379 66.9748 84.5268 67.0733C87.3599 67.0865 90.0826 65.9803 92.0983 63.9972C94.1139 62.0141 95.258 59.316 95.2798 56.4941C95.2996 53.6757 94.2094 50.9618 92.2433 48.9348C90.2772 46.9079 87.5917 45.7293 84.7632 45.652C79.0293 45.5863 73.9442 50.52 73.8947 56.2312Z" fill="white"/>
<path d="M102.685 19.2093C102.646 8.97498 111.547 0.257489 121.964 0.33415C126.951 0.393317 131.712 2.41133 135.213 5.94919C138.713 9.48705 140.669 14.2585 140.656 19.2257C140.656 29.909 132.41 38.172 121.745 38.1939C116.692 38.1867 111.848 36.1842 108.275 32.6254C104.703 29.0667 102.692 24.2421 102.685 19.2093ZM121.591 30.013C123.038 30.0885 124.486 29.8711 125.847 29.374C127.208 28.8768 128.453 28.1101 129.509 27.1203C130.564 26.1305 131.407 24.9379 131.987 23.6147C132.567 22.2914 132.871 20.8649 132.882 19.4211C132.894 17.9773 132.611 16.5463 132.052 15.2143C131.492 13.8823 130.668 12.677 129.628 11.6711C128.588 10.6652 127.355 9.87959 126.001 9.36162C124.648 8.84365 123.204 8.60409 121.756 8.65738C120.356 8.64945 118.969 8.91628 117.673 9.44261C116.377 9.96895 115.197 10.7445 114.202 11.7249C113.207 12.7053 112.416 13.8714 111.874 15.1565C111.331 16.4417 111.048 17.8207 111.041 19.2147C111.032 22.0316 112.131 24.7399 114.103 26.7586C116.075 28.7774 118.764 29.9457 121.591 30.013Z" fill="white"/>
<path d="M174.938 38.1118C164.212 38.2815 155.658 30.2211 155.422 19.7185C155.302 17.2065 155.688 14.6959 156.558 12.3351C157.428 9.97425 158.764 7.81104 160.487 5.97323C162.211 4.13543 164.287 2.66032 166.592 1.63505C168.898 0.609783 171.386 0.0551454 173.91 0.00390694C176.435 -0.0473315 178.944 0.405868 181.289 1.33673C183.635 2.2676 185.769 3.65725 187.566 5.42358C189.363 7.18992 190.787 9.29712 191.753 11.6207C192.719 13.9443 193.207 16.4371 193.19 18.9519C193.366 29.5202 185.339 37.9475 174.938 38.1118ZM163.657 19.2805C163.681 21.3947 164.335 23.4541 165.536 25.1978C166.737 26.9414 168.43 28.2908 170.401 29.0749C172.372 29.859 174.533 30.0425 176.609 29.6021C178.685 29.1618 180.584 28.1174 182.063 26.6013C183.543 25.0853 184.537 23.1658 184.92 21.0862C185.304 19.0066 185.058 16.8605 184.216 14.9198C183.373 12.9792 181.971 11.3314 180.187 10.1854C178.404 9.03929 176.318 8.44651 174.196 8.48216C168.451 8.51501 163.63 13.4432 163.657 19.2805Z" fill="white"/>
<path d="M68.671 166.704C68.7589 166.44 68.7589 166.265 68.7589 165.913C68.7589 164.154 66.3848 162.923 64.3624 162.923C63.0434 162.923 61.9003 163.451 61.5486 164.594L46.7763 216.825L38.335 184.642C37.8953 182.971 36.3126 182.356 34.6419 182.356C32.8833 182.356 31.2126 182.971 30.7729 184.642L22.4195 216.825L7.5593 164.594C7.20757 163.451 6.06448 162.923 4.83345 162.923C2.81105 162.923 0.348999 164.154 0.348999 165.913C0.348999 166.265 0.436929 166.44 0.52486 166.704L17.9351 225.178C18.4627 226.937 20.3971 227.728 22.5075 227.728C24.5299 227.728 26.5523 226.849 26.9919 225.178L34.6419 196.161L42.2039 225.178C42.6435 226.937 44.7539 227.728 46.7763 227.728C48.7987 227.728 50.8211 226.849 51.3487 225.178L68.671 166.704Z" fill="white"/>
<path d="M87.0175 184.994C77.521 184.994 69.6952 192.908 69.6952 201.876V210.845C69.6952 219.814 77.6969 227.904 87.0175 227.904C96.3381 227.904 104.428 219.726 104.428 210.845V201.876C104.428 192.644 96.3381 184.994 87.0175 184.994ZM97.1295 210.845C97.1295 216.209 92.5571 221.309 87.0175 221.309C81.4779 221.309 76.9934 216.209 76.9934 210.845V201.876C76.9934 196.689 81.39 191.589 87.0175 191.589C92.6451 191.589 97.1295 196.689 97.1295 201.876V210.845Z" fill="white"/>
<path d="M128.922 184.994C119.425 184.994 111.6 192.908 111.6 201.876V210.845C111.6 219.814 119.601 227.904 128.922 227.904C138.242 227.904 146.332 219.726 146.332 210.845V201.876C146.332 192.644 138.242 184.994 128.922 184.994ZM139.034 210.845C139.034 216.209 134.461 221.309 128.922 221.309C123.382 221.309 118.898 216.209 118.898 210.845V201.876C118.898 196.689 123.294 191.589 128.922 191.589C134.549 191.589 139.034 196.689 139.034 201.876V210.845Z" fill="white"/>
<path d="M162.473 176.201C162.561 171.013 166.518 166.792 171.969 166.792H173.816C175.75 166.792 176.805 165.297 176.805 163.627C176.805 161.956 175.75 160.373 173.816 160.373H170.738C162.297 160.373 155.175 167.671 155.175 176.816V224.65C155.175 226.145 156.669 227.2 158.692 227.2C160.714 227.2 162.473 226.145 162.473 224.65V191.237H174.519C175.926 191.237 176.805 189.918 176.805 188.423C176.805 186.928 175.926 185.521 174.519 185.521H162.473V176.201Z" fill="white"/>
<path d="M189.241 220.957L209.641 191.149C210.345 190.27 210.696 189.302 210.696 188.335C210.696 186.577 209.465 185.521 208.059 185.521H182.91C181.416 185.521 180.448 187.016 180.448 188.687C180.448 190.358 181.592 191.764 182.91 191.764H201.112L180.8 221.573C180.185 222.364 179.657 223.419 179.657 224.475C179.657 225.793 180.536 227.2 182.383 227.2H209.378C210.872 227.2 211.84 225.794 211.84 224.123C211.84 222.364 210.696 220.957 209.378 220.957H189.241Z" fill="white"/>
<path d="M234.026 184.994C224.53 184.994 216.704 192.908 216.704 201.876V210.845C216.704 219.814 224.706 227.904 234.026 227.904C243.347 227.904 251.436 219.726 251.436 210.845V201.876C251.436 192.644 243.347 184.994 234.026 184.994ZM244.138 210.845C244.138 216.209 239.566 221.309 234.026 221.309C228.487 221.309 224.002 216.209 224.002 210.845V201.876C224.002 196.689 228.399 191.589 234.026 191.589C239.654 191.589 244.138 196.689 244.138 201.876V210.845Z" fill="white"/>
<path d="M275.931 184.994C266.434 184.994 258.608 192.908 258.608 201.876V210.845C258.608 219.814 266.61 227.904 275.931 227.904C285.251 227.904 293.341 219.726 293.341 210.845V201.876C293.341 192.644 285.251 184.994 275.931 184.994ZM286.043 210.845C286.043 216.209 281.47 221.309 275.931 221.309C270.391 221.309 265.907 216.209 265.907 210.845V201.876C265.907 196.689 270.303 191.589 275.931 191.589C281.558 191.589 286.043 196.689 286.043 201.876V210.845Z" fill="white"/>
<circle cx="302.5" cy="223.5" r="4.2" stroke="white" stroke-width="0.6"/>
<path d="M301.708 222.011V222.428H300.879V225.125H300.368V222.428H299.534V222.011H301.708ZM305.505 222.011V225.125H304.994V222.992L304.044 225.125H303.69L302.736 222.992V225.125H302.225V222.011H302.776L303.869 224.453L304.958 222.011H305.505Z" fill="white"/>
</svg>
