<svg width="196" height="171" viewBox="0 0 196 171" fill="none" xmlns="http://www.w3.org/2000/svg">
<path d="M96.3277 162.081C76.277 175.99 50.8364 172.763 35.4374 154.358C20.6068 136.633 22.1617 110.624 39.0634 93.7293C50.2963 82.5007 61.5336 71.27 72.7752 60.0371C86.9198 45.9905 108.055 45.5332 122.389 59.3184C134.585 71.0435 146.562 82.9951 158.322 95.1732C176.263 113.773 174.388 143.52 154.768 160.232C141.192 171.802 117.737 175.794 98.059 161.009C97.3469 161.467 96.8112 161.747 96.3277 162.081ZM148.372 152.438C163.575 139.253 165.163 117.197 151.351 102.458C139.683 90.0118 127.531 77.9971 115.242 66.1523C105.291 56.5548 90.6372 56.6463 80.674 66.2829C68.4109 78.1539 56.2721 90.1752 44.5252 102.556C31.6285 116.152 32.2688 137.13 45.4268 150.419C51.6925 156.804 60.2078 160.485 69.152 160.674C78.0962 160.864 86.7596 157.546 93.2897 151.431C102.188 143.141 110.675 134.393 119.162 125.664C124.146 120.542 124.107 113.388 119.495 108.377C117.407 106.003 114.479 104.533 111.328 104.277C108.177 104.021 105.05 104.999 102.606 107.005C99.0456 109.827 96.3212 109.697 92.8063 106.894C87.5796 102.713 80.3081 103.627 75.9046 108.475C73.8089 110.821 72.6702 113.868 72.7137 117.014C72.7573 120.16 73.9799 123.174 76.1398 125.462C79.5633 129.166 83.2611 132.615 86.8087 136.209C90.0754 139.508 90.5458 142.487 87.9978 144.663C84.9467 147.276 82.3007 146.015 79.8442 143.487C76.4273 139.979 72.8863 136.588 69.4889 133.034C61.5249 124.756 60.4338 113.14 66.6992 104.085C73.0888 94.8334 84.4241 91.8542 95.1583 96.3557C96.8368 97.0045 98.6937 97.0231 100.385 96.4079C110.969 91.9849 122.252 94.8138 128.583 103.725C135.116 112.872 134.09 124.58 125.969 133.027C122.703 136.457 119.299 139.783 115.921 143.121C112.543 146.46 109.133 149.733 105.514 153.261C117.097 163.427 136.436 162.786 148.372 152.438Z" fill="white"/>
<path d="M173.551 89.9923C170.552 90.0558 167.571 89.5219 164.781 88.4216C161.99 87.3214 159.447 85.6768 157.298 83.5837C155.15 81.4906 153.439 78.9908 152.266 76.23C151.094 73.4692 150.482 70.5027 150.467 67.5032C150.453 64.5037 151.035 61.5313 152.181 58.7591C153.326 55.987 155.012 53.4705 157.14 51.3564C159.267 49.2423 161.795 47.5727 164.574 46.4451C167.354 45.3175 170.33 44.7543 173.329 44.7884C186.049 44.7884 195.921 54.5883 196 67.2041C196.029 73.1982 193.685 78.9603 189.478 83.2306C185.271 87.5008 179.545 89.9319 173.551 89.9923ZM173.754 79.9506C177.121 79.8683 180.318 78.4516 182.641 76.0121C184.964 73.5727 186.223 70.3104 186.141 66.9428C186.059 63.5752 184.642 60.3783 182.203 58.0552C179.763 55.7322 176.501 54.4734 173.133 54.5557C169.766 54.6371 166.568 56.053 164.245 58.4918C161.921 60.9306 160.661 64.1926 160.743 67.5602C160.824 70.9278 162.24 74.1251 164.679 76.4487C167.118 78.7724 170.38 80.032 173.747 79.9506H173.754Z" fill="white"/>
<path d="M45.1851 67.5765C45.1958 70.5434 44.6221 73.4833 43.4966 76.2284C42.3712 78.9735 40.716 81.47 38.6258 83.5755C34.4042 87.8277 28.6664 90.2287 22.6746 90.2503C19.7078 90.261 16.7679 89.6873 14.0228 88.5618C11.2777 87.4364 8.78111 85.7813 6.67565 83.691C2.42349 79.4694 0.0224784 73.7317 0.000819198 67.7398C-0.02084 61.748 2.33862 55.993 6.56016 51.7409C10.7817 47.4887 16.5195 45.0877 22.5113 45.066C28.5031 45.0444 34.2581 47.4038 38.5103 51.6254C42.7624 55.8469 45.1634 61.5847 45.1851 67.5765ZM9.80076 67.3152C9.7093 74.1425 15.5566 80.1335 22.4362 80.2511C25.8031 80.2668 29.0388 78.9469 31.4343 76.5809C33.8297 74.2149 35.1894 70.9956 35.2153 67.6288C35.2388 64.2661 33.9432 61.0281 31.6067 58.6097C29.2701 56.1913 26.0786 54.7851 22.7171 54.6929C15.9029 54.6145 9.85956 60.5009 9.80076 67.3152Z" fill="white"/>
<path d="M44.0156 23.1436C43.9699 10.9328 54.5473 0.531825 66.9279 0.623291C72.8539 0.693884 78.5123 3.10161 82.6722 7.3227C86.8322 11.5438 89.157 17.2368 89.1411 23.1632C89.1411 35.9096 79.3412 45.7684 66.6666 45.7945C60.6618 45.7859 54.9055 43.3967 50.6595 39.1507C46.4135 34.9047 44.0243 29.1483 44.0156 23.1436ZM66.4836 36.0338C68.2039 36.1238 69.9246 35.8644 71.5419 35.2712C73.1592 34.6781 74.6395 33.7634 75.8936 32.5824C77.1477 31.4014 78.1495 29.9785 78.8386 28.3997C79.5277 26.8209 79.8898 25.1189 79.903 23.3963C79.9163 21.6737 79.5804 19.9663 78.9157 18.3771C78.2509 16.7879 77.2711 15.3498 76.0354 14.1497C74.7996 12.9495 73.3335 12.0121 71.7256 11.3941C70.1176 10.7761 68.4011 10.4903 66.6796 10.5539C65.0163 10.5444 63.3675 10.8628 61.8273 11.4908C60.2871 12.1188 58.8857 13.0441 57.7032 14.2138C56.5207 15.3836 55.5803 16.7748 54.9356 18.3082C54.291 19.8415 53.9548 21.4868 53.9462 23.1501C53.935 26.5109 55.2415 29.7422 57.5854 32.1508C59.9292 34.5594 63.1238 35.9534 66.4836 36.0338Z" fill="white"/>
<path d="M129.883 45.6965C117.136 45.899 106.97 36.282 106.69 23.7512C106.546 20.754 107.005 17.7586 108.039 14.9419C109.073 12.1251 110.661 9.54411 112.709 7.35139C114.758 5.15867 117.225 3.39869 119.964 2.17542C122.704 0.952153 125.661 0.290404 128.661 0.229271C131.661 0.168137 134.643 0.708859 137.43 1.81949C140.218 2.93012 142.754 4.58814 144.89 6.69559C147.026 8.80305 148.718 11.3172 149.866 14.0895C151.014 16.8618 151.594 19.836 151.573 22.8365C151.782 35.4458 142.244 45.5005 129.883 45.6965ZM116.476 23.2285C116.505 25.751 117.282 28.2082 118.709 30.2886C120.136 32.369 122.148 33.979 124.491 34.9145C126.834 35.85 129.402 36.0689 131.869 35.5435C134.336 35.0181 136.592 33.772 138.35 31.9632C140.109 30.1543 141.291 27.8642 141.746 25.3829C142.202 22.9017 141.91 20.3411 140.909 18.0257C139.907 15.7103 138.241 13.7444 136.121 12.377C134.001 11.0096 131.523 10.3023 129.001 10.3448C122.173 10.384 116.444 16.264 116.476 23.2285Z" fill="white"/>
</svg>
