<svg width="944" height="241" viewBox="0 0 944 241" fill="none" xmlns="http://www.w3.org/2000/svg">
<circle cx="932" cy="99" r="11.2" stroke="white" stroke-width="1.6"/>
<path d="M929.62 94.6955V95.8068H927.41V103H926.048V95.8068H923.825V94.6955H929.62ZM939.747 94.6955V103H938.384V97.3123L935.851 103H934.907L932.362 97.3123V103H931V94.6955H932.47L935.385 101.208L938.289 94.6955H939.747Z" fill="white"/>
<path d="M136.287 228.098C107.919 247.7 71.9244 243.152 50.1373 217.215C29.1544 192.236 31.3544 155.583 55.2675 131.773C71.1602 115.949 87.0592 100.122 102.964 84.2917C122.977 64.4963 152.879 63.8518 173.16 83.2789C190.414 99.8027 207.361 116.646 223.999 133.808C249.382 160.021 246.729 201.941 218.971 225.493C199.763 241.799 166.578 247.424 138.737 226.588C137.729 227.233 136.971 227.629 136.287 228.098ZM209.921 214.508C231.431 195.928 233.677 164.845 214.137 144.074C197.628 126.534 180.435 109.602 163.047 92.9096C148.969 79.3843 128.236 79.5132 114.14 93.0938C96.7895 109.823 79.615 126.764 62.9951 144.212C44.7483 163.372 45.6542 192.936 64.2707 211.663C73.1356 220.663 85.1834 225.85 97.838 226.117C110.493 226.383 122.75 221.708 131.989 213.091C144.579 201.407 156.586 189.078 168.594 176.778C175.646 169.559 175.591 159.477 169.065 152.415C166.111 149.07 161.968 146.999 157.51 146.638C153.052 146.277 148.628 147.655 145.17 150.482C140.133 154.459 136.278 154.275 131.305 150.325C123.91 144.433 113.622 145.722 107.392 152.554C104.427 155.86 102.816 160.154 102.877 164.587C102.939 169.02 104.669 173.269 107.725 176.492C112.568 181.713 117.8 186.574 122.819 191.638C127.441 196.288 128.107 200.486 124.502 203.552C120.185 207.235 116.441 205.458 112.966 201.895C108.131 196.95 103.121 192.172 98.3147 187.163C87.0468 175.498 85.5032 159.127 94.3677 146.366C103.408 133.329 119.445 129.131 134.633 135.474C137.008 136.389 139.635 136.415 142.027 135.548C157.002 129.315 172.966 133.301 181.923 145.86C191.166 158.75 189.715 175.249 178.225 187.154C173.604 191.988 168.788 196.674 164.009 201.379C159.23 206.084 154.405 210.697 149.284 215.669C165.673 229.995 193.033 229.093 209.921 214.508Z" fill="white"/>
<path d="M245.546 126.507C241.303 126.596 237.085 125.844 233.137 124.293C229.189 122.743 225.59 120.425 222.55 117.475C219.511 114.525 217.091 111.003 215.431 107.112C213.772 103.221 212.907 99.0405 212.886 94.8135C212.865 90.5864 213.689 86.3975 215.31 82.4907C216.931 78.584 219.316 75.0377 222.326 72.0583C225.337 69.0789 228.912 66.7261 232.845 65.137C236.778 63.5479 240.988 62.7542 245.232 62.8022C263.229 62.8022 277.196 76.6129 277.307 94.392C277.349 102.839 274.031 110.96 268.08 116.978C262.128 122.995 254.027 126.421 245.546 126.507ZM245.833 112.355C250.597 112.239 255.12 110.243 258.407 106.805C261.694 103.367 263.475 98.7695 263.358 94.0237C263.242 89.2779 261.238 84.7725 257.786 81.4987C254.335 78.225 249.719 76.4509 244.955 76.5669C240.19 76.6817 235.666 78.677 232.379 82.114C229.091 85.5509 227.309 90.1479 227.424 94.8937C227.539 99.6396 229.543 104.145 232.993 107.42C236.444 110.695 241.059 112.47 245.823 112.355H245.833Z" fill="white"/>
<path d="M63.9287 94.9168C63.9438 99.0978 63.1321 103.241 61.5397 107.11C59.9474 110.978 57.6057 114.496 54.6483 117.464C48.6755 123.456 40.5574 126.84 32.08 126.87C27.8824 126.885 23.7229 126.077 19.839 124.491C15.9551 122.905 12.4229 120.572 9.44402 117.626C3.42789 111.677 0.0308534 103.591 0.00020913 95.1469C-0.0304352 86.7029 3.30783 78.5926 9.28061 72.6001C15.2534 66.6077 23.3715 63.224 31.8489 63.1935C40.3263 63.163 48.4687 66.4881 54.4848 72.4374C60.501 78.3866 63.898 86.4727 63.9287 94.9168ZM13.8655 94.5485C13.7361 104.17 22.0091 112.613 31.7426 112.779C36.5062 112.801 41.0843 110.941 44.4735 107.606C47.8626 104.272 49.7863 99.7352 49.823 94.9904C49.8562 90.2515 48.0232 85.6883 44.7174 82.2801C41.4115 78.8719 36.8961 76.8902 32.1401 76.7603C22.499 76.6498 13.9487 84.9454 13.8655 94.5485Z" fill="white"/>
<path d="M62.2741 32.2989C62.2094 15.0907 77.1747 0.432948 94.6912 0.561848C103.076 0.661332 111.081 4.05446 116.967 10.0031C122.853 15.9517 126.142 23.9747 126.119 32.3265C126.119 50.2897 112.254 64.1833 94.3215 64.2201C85.8258 64.2079 77.6815 60.8409 71.674 54.8572C65.6666 48.8734 62.2863 40.7612 62.2741 32.2989ZM94.0627 50.4646C96.4966 50.5915 98.9311 50.226 101.219 49.39C103.507 48.5541 105.602 47.265 107.376 45.6007C109.151 43.9363 110.568 41.9312 111.543 39.7062C112.518 37.4813 113.03 35.0827 113.049 32.6551C113.068 30.2275 112.592 27.8213 111.652 25.5817C110.711 23.3421 109.325 21.3154 107.577 19.6241C105.828 17.9328 103.754 16.6118 101.479 15.7408C99.2041 14.8699 96.7756 14.4671 94.34 14.5567C91.9867 14.5434 89.6538 14.992 87.4747 15.877C85.2955 16.762 83.3128 18.066 81.6397 19.7145C79.9667 21.363 78.6361 23.3237 77.7241 25.4846C76.8121 27.6454 76.3364 29.9641 76.3243 32.3081C76.3084 37.0444 78.1569 41.5982 81.4731 44.9925C84.7893 48.3869 89.309 50.3514 94.0627 50.4646Z" fill="white"/>
<path d="M183.762 64.082C165.728 64.3674 151.345 50.8145 150.947 33.1552C150.745 28.9314 151.394 24.7101 152.857 20.7405C154.32 16.7709 156.567 13.1337 159.465 10.0435C162.363 6.95341 165.853 4.47313 169.729 2.74922C173.606 1.0253 177.79 0.0927228 182.034 0.00656922C186.279 -0.0795843 190.497 0.682436 194.441 2.24761C198.385 3.81279 201.974 6.14938 204.995 9.11934C208.017 12.0893 210.411 15.6324 212.035 19.5393C213.659 23.4462 214.48 27.6377 214.451 31.8662C214.747 49.636 201.251 63.8058 183.762 64.082ZM164.794 32.4186C164.835 35.9735 165.935 39.4363 167.953 42.3681C169.972 45.3 172.819 47.5689 176.134 48.8872C179.448 50.2056 183.081 50.5142 186.572 49.7737C190.063 49.0333 193.255 47.2772 195.743 44.7281C198.23 42.1789 199.903 38.9515 200.547 35.4548C201.191 31.9581 200.779 28.3496 199.362 25.0865C197.945 21.8235 195.588 19.0529 192.588 17.1259C189.589 15.1989 186.083 14.2022 182.514 14.2621C172.855 14.3173 164.748 22.6038 164.794 32.4186Z" fill="white"/>
<path d="M457.659 70.9971C457.841 70.4502 457.841 70.0856 457.841 69.3565C457.841 65.7108 452.919 63.1588 448.727 63.1588C445.992 63.1588 443.623 64.2525 442.893 66.6222L412.269 174.9L394.77 108.183C393.859 104.72 390.577 103.444 387.114 103.444C383.468 103.444 380.005 104.72 379.093 108.183L361.776 174.9L330.97 66.6222C330.241 64.2525 327.871 63.1588 325.319 63.1588C321.127 63.1588 316.023 65.7108 316.023 69.3565C316.023 70.0856 316.205 70.4502 316.387 70.9971L352.48 192.217C353.573 195.863 357.584 197.503 361.959 197.503C366.151 197.503 370.344 195.681 371.255 192.217L387.114 132.063L402.791 192.217C403.702 195.863 408.077 197.503 412.269 197.503C416.462 197.503 420.655 195.681 421.748 192.217L457.659 70.9971ZM495.692 108.913C476.005 108.913 459.782 125.318 459.782 143.911V162.505C459.782 181.098 476.37 197.868 495.692 197.868C515.014 197.868 531.785 180.915 531.785 162.505V143.911C531.785 124.771 515.014 108.913 495.692 108.913ZM516.655 162.505C516.655 173.624 507.176 184.197 495.692 184.197C484.208 184.197 474.912 173.624 474.912 162.505V143.911C474.912 133.157 484.026 122.584 495.692 122.584C507.358 122.584 516.655 133.157 516.655 143.911V162.505ZM582.563 108.913C562.876 108.913 546.652 125.318 546.652 143.911V162.505C546.652 181.098 563.24 197.868 582.563 197.868C601.885 197.868 618.655 180.915 618.655 162.505V143.911C618.655 124.771 601.885 108.913 582.563 108.913ZM603.526 162.505C603.526 173.624 594.047 184.197 582.563 184.197C571.079 184.197 561.782 173.624 561.782 162.505V143.911C561.782 133.157 570.896 122.584 582.563 122.584C594.229 122.584 603.526 133.157 603.526 143.911V162.505ZM652.116 90.6839C652.298 79.9291 660.501 71.1794 671.803 71.1794H675.631C679.641 71.1794 681.829 68.0805 681.829 64.6171C681.829 61.1536 679.641 57.8725 675.631 57.8725H669.251C651.752 57.8725 636.986 73.0022 636.986 91.9599V191.123C636.986 194.222 640.085 196.41 644.278 196.41C648.47 196.41 652.116 194.222 652.116 191.123V121.855H677.089C680.006 121.855 681.829 119.121 681.829 116.022C681.829 112.923 680.006 110.006 677.089 110.006H652.116V90.6839ZM707.609 183.467L749.9 121.673C751.358 119.85 752.087 117.845 752.087 115.839C752.087 112.194 749.535 110.006 746.618 110.006H694.485C691.386 110.006 689.381 113.105 689.381 116.569C689.381 120.032 691.75 122.949 694.485 122.949H732.218L690.11 184.743C688.834 186.384 687.74 188.571 687.74 190.759C687.74 193.493 689.563 196.41 693.391 196.41H749.353C752.452 196.41 754.457 193.493 754.457 190.03C754.457 186.384 752.087 183.467 749.353 183.467H707.609ZM800.451 108.913C780.764 108.913 764.541 125.318 764.541 143.911V162.505C764.541 181.098 781.129 197.868 800.451 197.868C819.773 197.868 836.544 180.915 836.544 162.505V143.911C836.544 124.771 819.773 108.913 800.451 108.913ZM821.414 162.505C821.414 173.624 811.935 184.197 800.451 184.197C788.967 184.197 779.671 173.624 779.671 162.505V143.911C779.671 133.157 788.785 122.584 800.451 122.584C812.117 122.584 821.414 133.157 821.414 143.911V162.505ZM887.322 108.913C867.635 108.913 851.411 125.318 851.411 143.911V162.505C851.411 181.098 867.999 197.868 887.322 197.868C906.644 197.868 923.414 180.915 923.414 162.505V143.911C923.414 124.771 906.644 108.913 887.322 108.913ZM908.285 162.505C908.285 173.624 898.806 184.197 887.322 184.197C875.838 184.197 866.541 173.624 866.541 162.505V143.911C866.541 133.157 875.655 122.584 887.322 122.584C898.988 122.584 908.285 133.157 908.285 143.911V162.505Z" fill="white"/>
</svg>
