<svg width="944" height="241" viewBox="0 0 944 241" fill="none" xmlns="http://www.w3.org/2000/svg">
<circle cx="932" cy="99" r="11.2" stroke="#FF6933" stroke-width="1.6"/>
<path d="M929.62 94.6955V95.8068H927.41V103H926.048V95.8068H923.825V94.6955H929.62ZM939.747 94.6955V103H938.384V97.3123L935.851 103H934.907L932.362 97.3123V103H931V94.6955H932.47L935.385 101.208L938.289 94.6955H939.747Z" fill="#E53F00"/>
<path d="M136.287 228.098C107.919 247.7 71.9244 243.152 50.1373 217.215C29.1544 192.236 31.3544 155.583 55.2675 131.773C71.1602 115.949 87.0592 100.122 102.964 84.2917C122.977 64.4963 152.879 63.8518 173.16 83.2789C190.414 99.8027 207.361 116.646 223.999 133.808C249.382 160.021 246.729 201.941 218.971 225.493C199.763 241.799 166.578 247.424 138.737 226.588C137.729 227.233 136.971 227.629 136.287 228.098ZM209.921 214.508C231.431 195.928 233.677 164.845 214.137 144.074C197.628 126.534 180.435 109.602 163.047 92.9096C148.969 79.3843 128.236 79.5132 114.14 93.0938C96.7895 109.823 79.615 126.764 62.9951 144.212C44.7483 163.372 45.6542 192.936 64.2707 211.663C73.1356 220.663 85.1834 225.85 97.838 226.117C110.493 226.383 122.75 221.708 131.989 213.091C144.579 201.407 156.586 189.078 168.594 176.778C175.646 169.559 175.591 159.477 169.065 152.415C166.111 149.07 161.968 146.999 157.51 146.638C153.052 146.277 148.628 147.655 145.17 150.482C140.133 154.459 136.278 154.275 131.305 150.325C123.91 144.433 113.622 145.722 107.392 152.554C104.427 155.86 102.816 160.154 102.877 164.587C102.939 169.02 104.669 173.269 107.725 176.492C112.568 181.713 117.8 186.574 122.819 191.638C127.441 196.288 128.107 200.486 124.502 203.552C120.185 207.235 116.441 205.458 112.966 201.895C108.131 196.95 103.121 192.172 98.3147 187.163C87.0468 175.498 85.5032 159.127 94.3677 146.366C103.408 133.329 119.445 129.131 134.633 135.474C137.008 136.389 139.635 136.415 142.027 135.548C157.002 129.315 172.966 133.301 181.923 145.86C191.166 158.75 189.715 175.249 178.225 187.154C173.604 191.988 168.788 196.674 164.009 201.379C159.23 206.084 154.405 210.697 149.284 215.669C165.673 229.995 193.033 229.093 209.921 214.508Z" fill="#E53F00"/>
<path d="M245.546 126.507C241.303 126.596 237.085 125.844 233.137 124.293C229.189 122.743 225.59 120.425 222.55 117.475C219.511 114.525 217.091 111.003 215.431 107.112C213.772 103.221 212.907 99.0405 212.886 94.8135C212.865 90.5864 213.689 86.3975 215.31 82.4907C216.931 78.584 219.316 75.0377 222.326 72.0583C225.337 69.0789 228.912 66.7261 232.845 65.137C236.778 63.5479 240.988 62.7542 245.232 62.8022C263.229 62.8022 277.196 76.6129 277.307 94.392C277.349 102.839 274.031 110.96 268.08 116.978C262.128 122.995 254.027 126.421 245.546 126.507ZM245.833 112.355C250.597 112.239 255.12 110.243 258.407 106.805C261.694 103.367 263.475 98.7695 263.358 94.0237C263.242 89.2779 261.238 84.7725 257.786 81.4987C254.335 78.225 249.719 76.4509 244.955 76.5669C240.19 76.6817 235.666 78.677 232.379 82.114C229.091 85.5509 227.309 90.1479 227.424 94.8937C227.539 99.6396 229.543 104.145 232.993 107.42C236.444 110.695 241.059 112.47 245.823 112.355H245.833Z" fill="#E53F00"/>
<path d="M63.9287 94.9168C63.9438 99.0978 63.1321 103.241 61.5397 107.11C59.9474 110.978 57.6057 114.496 54.6483 117.464C48.6755 123.456 40.5574 126.84 32.08 126.87C27.8824 126.885 23.7229 126.077 19.839 124.491C15.9551 122.905 12.4229 120.572 9.44402 117.626C3.42789 111.677 0.0308534 103.591 0.00020913 95.1469C-0.0304352 86.7029 3.30783 78.5926 9.28061 72.6001C15.2534 66.6077 23.3715 63.224 31.8489 63.1935C40.3263 63.163 48.4687 66.4881 54.4848 72.4374C60.501 78.3866 63.898 86.4727 63.9287 94.9168ZM13.8655 94.5485C13.7361 104.17 22.0091 112.613 31.7426 112.779C36.5062 112.801 41.0843 110.941 44.4735 107.606C47.8626 104.272 49.7863 99.7352 49.823 94.9904C49.8562 90.2515 48.0232 85.6883 44.7174 82.2801C41.4115 78.8719 36.8961 76.8902 32.1401 76.7603C22.499 76.6498 13.9487 84.9454 13.8655 94.5485Z" fill="#E53F00"/>
<path d="M62.2741 32.2989C62.2094 15.0907 77.1747 0.432948 94.6912 0.561848C103.076 0.661332 111.081 4.05446 116.967 10.0031C122.853 15.9517 126.142 23.9747 126.119 32.3265C126.119 50.2897 112.254 64.1833 94.3215 64.2201C85.8258 64.2079 77.6815 60.8409 71.674 54.8572C65.6666 48.8734 62.2863 40.7612 62.2741 32.2989ZM94.0627 50.4646C96.4966 50.5915 98.9311 50.226 101.219 49.39C103.507 48.5541 105.602 47.265 107.376 45.6007C109.151 43.9363 110.568 41.9312 111.543 39.7062C112.518 37.4813 113.03 35.0827 113.049 32.6551C113.068 30.2275 112.592 27.8213 111.652 25.5817C110.711 23.3421 109.325 21.3154 107.577 19.6241C105.828 17.9328 103.754 16.6118 101.479 15.7408C99.2041 14.8699 96.7756 14.4671 94.34 14.5567C91.9867 14.5434 89.6538 14.992 87.4747 15.877C85.2955 16.762 83.3128 18.066 81.6397 19.7145C79.9667 21.363 78.6361 23.3237 77.7241 25.4846C76.8121 27.6454 76.3364 29.9641 76.3243 32.3081C76.3084 37.0444 78.1569 41.5982 81.4731 44.9925C84.7893 48.3869 89.309 50.3514 94.0627 50.4646Z" fill="#E53F00"/>
<path d="M183.762 64.082C165.728 64.3674 151.345 50.8145 150.947 33.1552C150.745 28.9314 151.394 24.7101 152.857 20.7405C154.32 16.7709 156.567 13.1337 159.465 10.0435C162.363 6.95341 165.853 4.47313 169.729 2.74922C173.606 1.0253 177.79 0.0927228 182.034 0.00656922C186.279 -0.0795843 190.497 0.682436 194.441 2.24761C198.385 3.81279 201.974 6.14938 204.995 9.11934C208.017 12.0893 210.411 15.6324 212.035 19.5393C213.659 23.4462 214.48 27.6377 214.451 31.8662C214.747 49.636 201.251 63.8058 183.762 64.082ZM164.794 32.4186C164.835 35.9735 165.935 39.4363 167.953 42.3681C169.972 45.3 172.819 47.5689 176.134 48.8872C179.448 50.2056 183.081 50.5142 186.572 49.7737C190.063 49.0333 193.255 47.2772 195.743 44.7281C198.23 42.1789 199.903 38.9515 200.547 35.4548C201.191 31.9581 200.779 28.3496 199.362 25.0865C197.945 21.8235 195.588 19.0529 192.588 17.1259C189.589 15.1989 186.083 14.2022 182.514 14.2621C172.855 14.3173 164.748 22.6038 164.794 32.4186Z" fill="#E53F00"/>
<path d="M362.043 197.503C359.977 197.503 357.972 197.078 356.028 196.227C354.205 195.255 353.05 193.918 352.564 192.217L316.472 70.9971C316.35 70.511 316.29 69.9641 316.29 69.3565C316.29 68.1413 316.776 67.1083 317.748 66.2576C318.72 65.2855 319.874 64.5563 321.211 64.0702C322.67 63.4626 324.067 63.1588 325.404 63.1588C326.741 63.1588 327.956 63.4626 329.05 64.0702C330.265 64.5563 330.994 65.407 331.237 66.6222L362.043 174.9L379.36 108.183C379.846 106.482 380.819 105.267 382.277 104.538C383.857 103.809 385.497 103.444 387.199 103.444C389.022 103.444 390.662 103.809 392.12 104.538C393.579 105.267 394.49 106.482 394.855 108.183L412.354 174.9L443.16 66.6222C443.525 65.407 444.193 64.5563 445.166 64.0702C446.259 63.4626 447.475 63.1588 448.811 63.1588C450.27 63.1588 451.667 63.4626 453.004 64.0702C454.462 64.5563 455.677 65.2855 456.65 66.2576C457.622 67.1083 458.108 68.1413 458.108 69.3565C458.108 69.9641 457.986 70.511 457.743 70.9971L422.015 192.217C421.408 193.918 420.192 195.255 418.37 196.227C416.547 197.078 414.542 197.503 412.354 197.503C410.288 197.503 408.283 197.078 406.339 196.227C404.516 195.255 403.422 193.918 403.058 192.217L387.199 132.063L371.522 192.217C371.036 193.918 369.882 195.255 368.059 196.227C366.236 197.078 364.231 197.503 362.043 197.503ZM495.603 197.868C489.162 197.868 483.208 196.227 477.739 192.946C472.271 189.544 467.896 185.169 464.615 179.822C461.333 174.475 459.693 168.702 459.693 162.505V143.911C459.693 137.714 461.273 132.002 464.432 126.777C467.713 121.429 472.088 117.115 477.557 113.834C483.025 110.553 489.041 108.913 495.603 108.913C502.044 108.913 507.999 110.553 513.467 113.834C518.936 116.994 523.311 121.186 526.592 126.412C529.994 131.637 531.696 137.471 531.696 143.911V162.505C531.696 168.581 529.994 174.353 526.592 179.822C523.311 185.169 518.936 189.544 513.467 192.946C507.999 196.227 502.044 197.868 495.603 197.868ZM495.603 184.197C499.492 184.197 502.955 183.164 505.993 181.098C509.153 179.032 511.705 176.358 513.649 173.077C515.594 169.674 516.566 166.15 516.566 162.505V143.911C516.566 140.387 515.594 136.985 513.649 133.703C511.827 130.422 509.335 127.749 506.176 125.683C503.016 123.617 499.492 122.584 495.603 122.584C491.714 122.584 488.19 123.617 485.031 125.683C481.871 127.749 479.38 130.422 477.557 133.703C475.734 136.985 474.823 140.387 474.823 143.911V162.505C474.823 166.15 475.734 169.674 477.557 173.077C479.38 176.358 481.871 179.032 485.031 181.098C488.19 183.164 491.714 184.197 495.603 184.197ZM582.474 197.868C576.033 197.868 570.078 196.227 564.61 192.946C559.141 189.544 554.766 185.169 551.485 179.822C548.204 174.475 546.563 168.702 546.563 162.505V143.911C546.563 137.714 548.143 132.002 551.303 126.777C554.584 121.429 558.959 117.115 564.427 113.834C569.896 110.553 575.911 108.913 582.474 108.913C588.914 108.913 594.869 110.553 600.338 113.834C605.806 116.994 610.181 121.186 613.462 126.412C616.865 131.637 618.566 137.471 618.566 143.911V162.505C618.566 168.581 616.865 174.353 613.462 179.822C610.181 185.169 605.806 189.544 600.338 192.946C594.869 196.227 588.914 197.868 582.474 197.868ZM582.474 184.197C586.362 184.197 589.826 183.164 592.864 181.098C596.024 179.032 598.576 176.358 600.52 173.077C602.464 169.674 603.437 166.15 603.437 162.505V143.911C603.437 140.387 602.464 136.985 600.52 133.703C598.697 130.422 596.206 127.749 593.046 125.683C589.887 123.617 586.362 122.584 582.474 122.584C578.585 122.584 575.061 123.617 571.901 125.683C568.742 127.749 566.25 130.422 564.427 133.703C562.605 136.985 561.693 140.387 561.693 143.911V162.505C561.693 166.15 562.605 169.674 564.427 173.077C566.25 176.358 568.742 179.032 571.901 181.098C575.061 183.164 578.585 184.197 582.474 184.197ZM644.189 196.41C642.123 196.41 640.361 195.924 638.903 194.951C637.566 193.979 636.897 192.703 636.897 191.123V91.9599C636.897 85.6407 638.356 79.9291 641.272 74.8251C644.189 69.5995 648.078 65.4677 652.939 62.4296C657.921 59.3915 663.329 57.8725 669.162 57.8725H675.542C677.486 57.8725 679.005 58.5409 680.099 59.8776C681.193 61.2144 681.74 62.7942 681.74 64.6171C681.74 66.3184 681.193 67.8375 680.099 69.1742C679.005 70.511 677.486 71.1794 675.542 71.1794H671.714C667.947 71.1794 664.544 72.0908 661.506 73.9136C658.589 75.615 656.28 77.9847 654.579 81.0228C652.878 83.9394 652.027 87.1597 652.027 90.6839V110.006H677C678.459 110.006 679.613 110.614 680.464 111.829C681.314 113.044 681.74 114.442 681.74 116.022C681.74 117.48 681.314 118.817 680.464 120.032C679.613 121.247 678.459 121.855 677 121.855H652.027V191.123C652.027 192.703 651.237 193.979 649.657 194.951C648.078 195.924 646.255 196.41 644.189 196.41ZM693.302 196.41C691.479 196.41 690.082 195.863 689.109 194.769C688.137 193.554 687.651 192.217 687.651 190.759C687.651 189.665 687.894 188.571 688.38 187.478C688.866 186.384 689.413 185.473 690.021 184.743L732.129 122.949H694.396C693.059 122.949 691.844 122.341 690.75 121.126C689.778 119.91 689.292 118.391 689.292 116.569C689.292 114.746 689.778 113.227 690.75 112.011C691.722 110.675 692.937 110.006 694.396 110.006H746.529C747.988 110.006 749.264 110.492 750.357 111.465C751.451 112.437 751.998 113.895 751.998 115.839C751.998 117.784 751.269 119.728 749.811 121.673L707.52 183.467H749.264C750.722 183.467 751.937 184.136 752.909 185.473C753.882 186.688 754.368 188.207 754.368 190.03C754.368 191.731 753.882 193.25 752.909 194.587C751.937 195.802 750.722 196.41 749.264 196.41H693.302ZM800.184 197.868C793.743 197.868 787.789 196.227 782.32 192.946C776.852 189.544 772.477 185.169 769.196 179.822C765.914 174.475 764.274 168.702 764.274 162.505V143.911C764.274 137.714 765.854 132.002 769.013 126.777C772.294 121.429 776.669 117.115 782.138 113.834C787.606 110.553 793.622 108.913 800.184 108.913C806.625 108.913 812.58 110.553 818.048 113.834C823.517 116.994 827.892 121.186 831.173 126.412C834.575 131.637 836.277 137.471 836.277 143.911V162.505C836.277 168.581 834.575 174.353 831.173 179.822C827.892 185.169 823.517 189.544 818.048 192.946C812.58 196.227 806.625 197.868 800.184 197.868ZM800.184 184.197C804.073 184.197 807.536 183.164 810.574 181.098C813.734 179.032 816.286 176.358 818.23 173.077C820.175 169.674 821.147 166.15 821.147 162.505V143.911C821.147 140.387 820.175 136.985 818.23 133.703C816.408 130.422 813.916 127.749 810.757 125.683C807.597 123.617 804.073 122.584 800.184 122.584C796.295 122.584 792.771 123.617 789.612 125.683C786.452 127.749 783.961 130.422 782.138 133.703C780.315 136.985 779.404 140.387 779.404 143.911V162.505C779.404 166.15 780.315 169.674 782.138 173.077C783.961 176.358 786.452 179.032 789.612 181.098C792.771 183.164 796.295 184.197 800.184 184.197ZM887.055 197.868C880.614 197.868 874.659 196.227 869.191 192.946C863.722 189.544 859.347 185.169 856.066 179.822C852.785 174.475 851.144 168.702 851.144 162.505V143.911C851.144 137.714 852.724 132.002 855.884 126.777C859.165 121.429 863.54 117.115 869.008 113.834C874.477 110.553 880.492 108.913 887.055 108.913C893.495 108.913 899.45 110.553 904.919 113.834C910.387 116.994 914.762 121.186 918.043 126.412C921.446 131.637 923.147 137.471 923.147 143.911V162.505C923.147 168.581 921.446 174.353 918.043 179.822C914.762 185.169 910.387 189.544 904.919 192.946C899.45 196.227 893.495 197.868 887.055 197.868ZM887.055 184.197C890.943 184.197 894.407 183.164 897.445 181.098C900.605 179.032 903.157 176.358 905.101 173.077C907.045 169.674 908.018 166.15 908.018 162.505V143.911C908.018 140.387 907.045 136.985 905.101 133.703C903.278 130.422 900.787 127.749 897.627 125.683C894.468 123.617 890.943 122.584 887.055 122.584C883.166 122.584 879.642 123.617 876.482 125.683C873.322 127.749 870.831 130.422 869.008 133.703C867.186 136.985 866.274 140.387 866.274 143.911V162.505C866.274 166.15 867.186 169.674 869.008 173.077C870.831 176.358 873.322 179.032 876.482 181.098C879.642 183.164 883.166 184.197 887.055 184.197Z" fill="#E53F00"/>
</svg>
